HIERARCHY
ROOT hip
{
  OFFSET 0 0 0
  CHANNELS 6 Xposition Yposition Zposition Zrotation Yrotation Xrotation
  JOINT abdomen
  {
    OFFSET 0 20.6881 -0.73152
    CHANNELS 3 Zrotation Xrotation Yrotation
    JOINT chest
    {
      OFFSET 0 11.7043 -0.48768
      CHANNELS 3 Zrotation Xrotation Yrotation
      JOINT neck
      {
        OFFSET 0 22.1894 -2.19456
        CHANNELS 3 Zrotation Xrotation Yrotation
        JOINT head
        {
          OFFSET -0.24384 7.07133 1.2192
          CHANNELS 3 Zrotation Xrotation Yrotation
          JOINT leftEye
          {
            OFFSET 4.14528 8.04674 8.04672
            CHANNELS 3 Zrotation Xrotation Yrotation
            End Site
            {
              OFFSET 1 0 0
            }
          }
          JOINT rightEye
          {
            OFFSET -3.6576 8.04674 8.04672
            CHANNELS 3 Zrotation Xrotation Yrotation
            End Site
            {
              OFFSET 1 0 0
            }
          }
        }
      }
      JOINT rCollar
      {
        OFFSET -2.68224 19.2634 -4.8768
        CHANNELS 3 Zrotation Xrotation Yrotation
        JOINT rShldr
        {
          OFFSET -8.77824 -1.95073 1.46304
          CHANNELS 3 Zrotation Xrotation Yrotation
          JOINT rForeArm
          {
            OFFSET -28.1742 -1.7115 0.48768
            CHANNELS 3 Zrotation Xrotation Yrotation
            JOINT rHand
            {
              OFFSET -22.5879 0.773209 7.07136
              CHANNELS 3 Zrotation Xrotation Yrotation
              JOINT rThumb1
              {
                OFFSET -1.2192 -0.487915 3.41376
                CHANNELS 3 Zrotation Xrotation Yrotation
                JOINT rThumb2
                {
                  OFFSET -3.37035 -0.52449 3.41376
                  CHANNELS 3 Zrotation Xrotation Yrotation
                  End Site
                  {
                    OFFSET -1.78271 -1.18214 1.43049
                  }
                }
              }
              JOINT rIndex1
              {
                OFFSET -7.75947 0.938293 5.60832
                CHANNELS 3 Zrotation Xrotation Yrotation
                JOINT rIndex2
                {
                  OFFSET -2.54057 -0.884171 1.56538
                  CHANNELS 3 Zrotation Xrotation Yrotation
                  End Site
                  {
                    OFFSET -1.62519 -0.234802 1.16502
                  }
                }
              }
              JOINT rMid1
              {
                OFFSET -8.24714 1.18213 3.41376
                CHANNELS 3 Zrotation Xrotation Yrotation
                JOINT rMid2
                {
                  OFFSET -3.10165 -0.590103 1.0647
                  CHANNELS 3 Zrotation Xrotation Yrotation
                  End Site
                  {
                    OFFSET -2.48547 -0.328903 0.83742
                  }
                }
              }
              JOINT rRing1
              {
                OFFSET -8.82822 0.546677 1.51678
                CHANNELS 3 Zrotation Xrotation Yrotation
                JOINT rRing2
                {
                  OFFSET -2.60934 -0.819778 -0.0198488
                  CHANNELS 3 Zrotation Xrotation Yrotation
                  End Site
                  {
                    OFFSET -2.33842 -0.294052 0.168128
                  }
                }
              }
              JOINT rPinky1
              {
                OFFSET -8.27202 -0.0477905 -0.4584
                CHANNELS 3 Zrotation Xrotation Yrotation
                JOINT rPinky2
                {
                  OFFSET -1.82734 -0.647385 -0.700984
                  CHANNELS 3 Zrotation Xrotation Yrotation
                  End Site
                  {
                    OFFSET -1.69225 -0.51767 -0.607171
                  }
                }
              }
            }
          }
        }
      }
      JOINT lCollar
      {
        OFFSET 2.68224 19.2634 -4.8768
        CHANNELS 3 Zrotation Xrotation Yrotation
        JOINT lShldr
        {
          OFFSET 8.77824 -1.95073 1.46304
          CHANNELS 3 Zrotation Xrotation Yrotation
          JOINT lForeArm
          {
            OFFSET 28.1742 -1.7115 0.48768
            CHANNELS 3 Zrotation Xrotation Yrotation
            JOINT lHand
            {
              OFFSET 22.5879 0.773209 7.07136
              CHANNELS 3 Zrotation Xrotation Yrotation
              JOINT lThumb1
              {
                OFFSET 1.2192 -0.487915 3.41376
                CHANNELS 3 Zrotation Xrotation Yrotation
                JOINT lThumb2
                {
                  OFFSET 3.37035 -0.52449 3.41376
                  CHANNELS 3 Zrotation Xrotation Yrotation
                  End Site
                  {
                    OFFSET 1.78271 -1.18214 1.43049
                  }
                }
              }
              JOINT lIndex1
              {
                OFFSET 7.75947 0.938293 5.60832
                CHANNELS 3 Zrotation Xrotation Yrotation
                JOINT lIndex2
                {
                  OFFSET 2.54057 -0.884171 1.56538
                  CHANNELS 3 Zrotation Xrotation Yrotation
                  End Site
                  {
                    OFFSET 1.62519 -0.234802 1.16502
                  }
                }
              }
              JOINT lMid1
              {
                OFFSET 8.24714 1.18213 3.41376
                CHANNELS 3 Zrotation Xrotation Yrotation
                JOINT lMid2
                {
                  OFFSET 3.10165 -0.590103 1.0647
                  CHANNELS 3 Zrotation Xrotation Yrotation
                  End Site
                  {
                    OFFSET 2.48547 -0.328903 0.83742
                  }
                }
              }
              JOINT lRing1
              {
                OFFSET 8.82822 0.546677 1.51678
                CHANNELS 3 Zrotation Xrotation Yrotation
                JOINT lRing2
                {
                  OFFSET 2.60934 -0.819778 -0.0198488
                  CHANNELS 3 Zrotation Xrotation Yrotation
                  End Site
                  {
                    OFFSET 2.33842 -0.294052 0.168128
                  }
                }
              }
              JOINT lPinky1
              {
                OFFSET 8.27202 -0.0477905 -0.4584
                CHANNELS 3 Zrotation Xrotation Yrotation
                JOINT lPinky2
                {
                  OFFSET 1.82734 -0.647385 -0.700984
                  CHANNELS 3 Zrotation Xrotation Yrotation
                  End Site
                  {
                    OFFSET 1.69225 -0.51767 -0.607171
                  }
                }
              }
            }
          }
        }
      }
    }
  }
  JOINT rButtock
  {
    OFFSET -8.77824 4.35084 1.2192
    CHANNELS 3 Zrotation Xrotation Yrotation
    JOINT rThigh
    {
      OFFSET 0 -1.70687 -2.19456
      CHANNELS 3 Zrotation Xrotation Yrotation
      JOINT rShin
      {
        OFFSET 0 -36.8199 0.73152
        CHANNELS 3 Zrotation Xrotation Yrotation
        JOINT rFoot
        {
          OFFSET 0.73152 -45.1104 -5.12064
          CHANNELS 3 Zrotation Xrotation Yrotation
          End Site
          {
            OFFSET -1.1221 -3.69964 12.103
          }
        }
      }
    }
  }
  JOINT lButtock
  {
    OFFSET 8.77824 4.35084 1.2192
    CHANNELS 3 Zrotation Xrotation Yrotation
    JOINT lThigh
    {
      OFFSET 0 -1.70687 -2.19456
      CHANNELS 3 Zrotation Xrotation Yrotation
      JOINT lShin
      {
        OFFSET 0 -36.8199 0.73152
        CHANNELS 3 Zrotation Xrotation Yrotation
        JOINT lFoot
        {
          OFFSET -0.73152 -45.1104 -5.12064
          CHANNELS 3 Zrotation Xrotation Yrotation
          End Site
          {
            OFFSET 1.1221 -3.69964 12.103
          }
        }
      }
    }
  }
}
MOTION
Frames:	5
Frame Time:	0.03333
0.0 0.0 0.0 0.0 0.0 0.0 0.0 0.0 0.0 0.0 0.0 0.0 0.0 0.0 0.0 0.0 0.0 0.0 0.0 0.0 0.0 0.0 0.0 0.0 0.0 0.0 0.0 0.0 0.0 0.0 0.0 0.0 0.0 0.0 0.0 0.0 0.0 0.0 0.0 0.0 0.0 0.0 0.0 0.0 0.0 0.0 0.0 0.0 0.0 0.0 0.0 0.0 0.0 0.0 0.0 0.0 0.0 0.0 0.0 0.0 0.0 0.0 0.0 0.0 0.0 0.0 0.0 0.0 0.0 0.0 0.0 0.0 0.0 0.0 0.0 0.0 0.0 0.0 0.0 0.0 0.0 0.0 0.0 0.0 0.0 0.0 0.0 0.0 0.0 0.0 0.0 0.0 0.0 0.0 0.0 0.0 0.0 0.0 0.0 0.0 0.0 0.0 0.0 0.0 0.0 0.0 0.0 0.0 0.0 0.0 0.0 0.0 0.0 0.0 0.0 0.0 0.0 0.0 0.0 0.0 0.0 0.0 0.0 0.0 0.0 0.0 0.0 0.0 0.0 0.0 0.0 0.0
0.3684 59.9684 -0.4939 169.141741 31.592242 173.351428 -19.224973 14.609012 4.224045 6.912544 -9.401534 -7.018806 8.621697 24.643613 89.311226 -33.202409 9.941894 -119.868811 0.000888 0.0 0.003484 0.00029 -0.0 -0.001821 -0.049407 0.292352 0.065103 58.709569 13.92628 0.071361 -3.793572 -6.432559 54.915209 -5.767808 21.609923 0.804413 0.9672 -0.958022 -0.140252 -113.189142 0.345457 102.763052 5.74139 -9.851113 -2.891572 -65.065849 48.636991 51.06117 -82.841031 61.109803 74.532179 -170.175518 -26.297749 144.096832 0.001216 -0.018561 -0.005526 10.326371 0.039576 -0.060547 31.99878 83.321701 6.245675 -10.521356 -24.183175 -11.417235 81.707789 68.336954 -84.818754 -59.768872 -18.650174 -84.215088 104.350515 57.934819 -54.735351 -123.78603 -64.307555 -107.866423 121.364263 30.329249 -71.957802 158.333141 -22.063572 -76.104846 1.161956 1.861084 -0.667711 152.238067 0.012132 -109.268886 151.47711 17.84172 -137.538552 163.953718 -7.058127 -143.20811 73.625818 72.973372 -91.553642 77.332114 -82.455838 94.455447 156.382379 53.733747 150.11924 11.489253 -25.308792 12.983481 -179.998716 75.750335 -0.0 152.065492 4.214092 -90.316822 -81.991375 -4.775926 -104.74296 -90.936416 -6.143156 178.248064 -179.953734 75.748746 -0.034566 -126.654415 79.073978 126.153765 21.612263 -45.971842 107.103993 -103.024999 66.869412 -156.128552
0.4939 59.889 -0.6930999999999999 169.257081 31.71958 173.693328 -16.477055 12.21962 -81.701745 7.47368 3.743103 77.931021 1.463322 17.18828 29.961168 -16.620928 -20.29268 -65.37468 0.000277 -0.0 -0.002549 0.000277 -0.0 -0.002549 -13.743189 42.431503 15.569628 6.290182 45.483006 59.691371 109.910691 0.485252 164.144098 -160.732808 56.757335 136.658403 -12.304537 11.515534 3.094006 -13.768767 12.158782 18.267463 -140.76255 1.380665 116.229592 45.102869 -55.09285 1.607526 -36.037485 51.72257 29.832947 3.33517 0.218165 0.09895 -145.062404 -3.308646 -178.084917 11.482 13.748794 -7.375506 -41.391515 -46.840142 -40.21405 -73.278668 -54.444282 -73.875376 13.742823 42.431884 -15.567961 156.582515 -35.51667 -110.829551 -175.616365 76.176351 141.950968 9.112232 34.82303 -2.453975 -178.618333 -18.759732 -89.039185 150.239322 8.468631 -81.309752 -29.400385 -49.645671 4.159789 -6.827354 13.934033 0.166031 161.153393 -8.160779 -143.464674 163.366857 -4.999513 -142.987223 -0.005071 1.770437 -0.556269 -9.612363 7.243923 -0.883374 143.936524 8.265915 140.719025 147.522627 11.8304 141.727969 -0.000891 -0.000622 0.001146 -58.322512 -55.319266 -63.09501 -53.855332 65.146378 -30.442565 149.542242 -19.588971 -96.945737 -0.007723 -0.001377 -0.007722 8.133893 8.128736 134.692304 49.003773 -23.319085 111.278104 -117.904443 16.913088 -161.409028
0.6183 59.7935 -0.8706999999999999 169.408 31.765875 174.075301 -18.824981 14.038979 3.940681 6.607477 -9.241673 -6.427743 -6.75505 17.388353 -12.473883 11.14308 -24.531553 -16.799783 -0.003941 0.0 -0.000957 -0.003283 -0.0 0.004326 -80.165932 68.371917 83.260868 97.545065 -34.142477 80.433188 -2.980181 -1.208778 53.843719 -6.076443 25.832772 1.384153 16.89247 -16.714527 -0.117636 -118.843817 5.854473 105.813644 -145.02285 -5.717376 118.52333 -164.283891 -19.173942 119.319799 -86.295518 60.959875 77.857088 -34.418434 55.063247 29.265596 -145.099673 -1.521133 -178.650217 -147.965521 -43.121475 -170.576482 11.402774 38.078818 9.694515 -141.057051 -7.888406 -137.627398 -2.460194 -18.216345 3.668918 119.402194 80.587371 163.104457 17.142357 -76.075803 -10.722877 5.09645 23.975792 -1.342772 7.350732 7.062504 -1.569988 -2.896101 -2.011052 -2.484438 -159.641205 -69.9732 -102.396651 2.180126 28.56764 -0.943011 8.304852 20.652673 -5.561282 163.182617 -4.724222 -143.335893 0.000594 0.063825 -0.01974 149.986718 38.867338 -164.835549 16.662682 -29.659372 15.919233 19.997943 -38.131037 21.464364 -0.001187 0.000474 -0.000297 -61.718397 -54.746717 24.618135 71.74952 17.017381 -131.253689 100.259804 36.953209 -18.785452 179.993305 75.749168 0.004581 -115.3455 78.81335 -141.400115 -46.882604 -5.737475 -0.30044 -156.013209 44.584029 -119.469288
0.7452000000000001 59.7546 -1.0234 169.593514 31.627042 174.204719 -18.607199 14.259604 3.964273 6.39968 -9.385059 -6.548241 -13.333451 24.555902 -66.452336 35.521227 -2.421764 36.957589 -0.001893 0.0 -0.00344 -0.001893 0.0 -0.00344 -33.837488 -85.665646 -55.255345 133.881625 47.264565 -118.157156 168.506693 19.147253 97.008342 167.855798 -17.22334 144.518408 0.567333 -0.561631 -0.085121 -16.528821 16.064906 14.02615 -43.64829 38.80338 34.060341 -1.690811 12.362892 0.295572 -160.097787 -4.901158 142.969148 3.166526 0.180356 0.382874 -145.108931 -0.667669 -178.916555 12.152711 36.616127 -4.854575 -126.796304 -26.618967 -124.51231 -127.521656 -27.951689 -125.781779 80.165986 68.371925 -83.260851 -60.252516 -17.966727 -84.127437 -179.12348 39.246084 -115.322761 -164.063052 -26.551411 -142.368544 5.433637 5.265052 -1.07713 -73.061124 -76.616227 -5.077496 4.706422 7.224219 -2.854137 79.991909 48.096116 -61.728592 160.673401 -6.667921 -143.244755 85.915433 63.859894 -77.759562 0.000405 0.063727 -0.020374 154.238164 12.766934 -170.105969 0.343985 -0.890248 0.318949 146.892185 10.292936 143.366575 179.995633 75.749999 0.004506 148.991657 3.676153 83.911092 72.234771 6.134212 -30.980995 -82.682452 29.811517 17.133474 0.0 0.001244 -0.001511 8.497015 8.407156 134.381495 46.750061 -20.721167 134.984953 -133.285345 33.840682 -145.644296
